# xmcd
#
# Track frame offsets:
#	150
#	12670
#	19422
#	30397
#	42645
#	53837
#	65817
#	88562
#	98625
#	115865
#	127977
#	139197
#	150617
#	161042
#	169965
#	181885
#	193892
#	208640
#	219542
#
# Disc length: 3080 seconds
#
# Revision: 0
# Processed by: cddbd v1.5.1PL0 Copyright (c) Steve Scherf et al.
# Submitted via: dBpowerAMP V4.0
#
DISCID=140c0613
DTITLE=Vavious - Wertern CD2
DYEAR=1900
DGENRE=Country
TTITLE0=Frankie - Lane - High_noon
TTITLE1=Waylon_Jennings - It'so_easy
TTITLE2=Tammy_Winette - D.i.v.o.r.c.e.
TTITLE3=Willie_Nelson - I_can't_find_the_time
TTITLE4=Donna_Fargo - Wishful_thinking
TTITLE5=Stonewall_Jackson - I_can't_get_enough_of_you
TTITLE6=Dottie_West - An_American_trilogy
TTITLE7=Mickey_Gilley - Lonely_wine
TTITLE8=Kenny Rogers - Something_burning
TTITLE9=Faron_Young - Sweet_dream
TTITLE10=Roy_Drusky - The_last_letter
TTITLE11=Freddy_Fender - Before_the_last_teardrop_falls
TTITLE12=Waylon_Jennings_Money
TTITLE13=Willie_Nelson_Waiting_time
TTITLE14=Forrester_Sisters - Dixie_man_(live)
TTITLE15=E_Bruce_&_Landerson - Down_the_hall_(live)
TTITLE16=Freddy_Weller - Games_people_play_(live)
TTITLE17=Johnny_Cash - Oh_lonesome_me_(live)
TTITLE18=Patsy_Cline - I've_loved_and_lost_again
EXTD=
EXTT0=
EXTT1=
EXTT2=
EXTT3=
EXTT4=
EXTT5=
EXTT6=
EXTT7=
EXTT8=
EXTT9=
EXTT10=
EXTT11=
EXTT12=
EXTT13=
EXTT14=
EXTT15=
EXTT16=
EXTT17=
EXTT18=
PLAYORDER=
